# xmcd
#
# Track frame offsets: 
#        150
#        18812
#        39817
#        60103
#        82003
#        110925
#        126983
#        145598
#        163729
#        185112
#        203166
#        224469
#        244743
#        265111
#        289074
#
# Disc length: 4073 seconds
#
# Revision: 0
# Processed by: cddbd v1.4PL0 Copyright (c) Steve Scherf et al.
# Submitted via: ExactAudioCopy v0.90b4
#
DISCID=d80fe70f
DTITLE=Various Artist - Missippi Burnin Blues
DYEAR=1993
DGENRE=Missippi delta Blues
TTITLE0=Pistol Knife and Razor Too-Sweet Miss Coffy
TTITLE1=Broken Hearted Woman-Sweet Miss Coffy
TTITLE2=I'd rather Drink Muddy Water-Sweet Miss Coffy
TTITLE3=Using Me to Hurt Him-Cadillac George Harris
TTITLE4=Feel Like Breaking Up Sombody's Home-Cadillac George harris
TTITLE5=Dangerous Woman-Cadillac George harris
TTITLE6=That's Allright-Cadillac George Harris
TTITLE7=I Want That Love Back-George Jackson
TTITLE8=Strugglin' Lady-George Jackson
TTITLE9=Heart to Heart Collect-George jackson
TTITLE10=Lonely Women-George jackson
TTITLE11=If It's Love That You're Trying to Fight-Sweet Miss Coffy
TTITLE12=I've Been Watching You-Sweet Miss Coffy
TTITLE13=Baby Don't Do It-Sweet Miss Coffy
TTITLE14=Back In The Streets Again-Sweet Miss Coffy
EXTD=
EXTT0=
EXTT1=
EXTT2=
EXTT3=
EXTT4=
EXTT5=
EXTT6=
EXTT7=
EXTT8=
EXTT9=
EXTT10=
EXTT11=
EXTT12=
EXTT13=
EXTT14=
PLAYORDER=
